<svg width="141" height="141" viewBox="0 0 141 141" fill="none" xmlns="http://www.w3.org/2000/svg">
<mask id="mask0_21_6294" style="mask-type:alpha" maskUnits="userSpaceOnUse" x="0" y="0" width="141" height="141">
<rect width="141" height="141" fill="#0f0"/>
</mask>
<g mask="url(#mask0_21_6294)">
<rect x="-338" y="-189" width="1250" height="1020" fill="black"/>
<line x1="-377" y1="46.5" x2="1063" y2="46.5001" stroke="#161616"/>
<line x1="-377" y1="140.5" x2="1063" y2="140.5" stroke="#161616"/>
<line x1="-377" y1="-0.5" x2="1063" y2="-0.499874" stroke="#161616"/>
<line x1="-377" y1="93.5" x2="1063" y2="93.5001" stroke="#161616"/>
<line x1="93.5002" y1="-426" x2="93.5001" y2="1014" stroke="#161616"/>
<line x1="-0.499756" y1="-426" x2="-0.499945" y2="1014" stroke="#161616"/>
<line x1="140.5" y1="-426" x2="140.5" y2="1014" stroke="#161616"/>
<line x1="46.5002" y1="-426" x2="46.5001" y2="1014" stroke="#161616"/>
<line x1="-9" y1="46.5" x2="8" y2="46.5" stroke="#252525"/>
<line x1="-9" y1="93.5" x2="8" y2="93.5" stroke="#252525"/>
<line x1="-9" y1="140.5" x2="8" y2="140.5" stroke="#252525"/>
<line x1="46.5" y1="8" x2="46.5" y2="-9" stroke="#252525"/>
<line x1="46.5" y1="55" x2="46.5" y2="38" stroke="#252525"/>
<line x1="38" y1="46.5" x2="55" y2="46.5" stroke="#252525"/>
<line x1="46.5" y1="102" x2="46.5" y2="85" stroke="#252525"/>
<line x1="38" y1="93.5" x2="55" y2="93.5" stroke="#252525"/>
<line x1="46.5" y1="149" x2="46.5" y2="132" stroke="#252525"/>
<line x1="38" y1="140.5" x2="55" y2="140.5" stroke="#252525"/>
<line x1="93.5" y1="8" x2="93.5" y2="-9" stroke="#252525"/>
<line x1="93.5" y1="55" x2="93.5" y2="38" stroke="#252525"/>
<line x1="85" y1="46.5" x2="102" y2="46.5" stroke="#252525"/>
<line x1="93.5" y1="102" x2="93.5" y2="85" stroke="#252525"/>
<line x1="85" y1="93.5" x2="102" y2="93.5" stroke="#252525"/>
<line x1="93.5" y1="149" x2="93.5" y2="132" stroke="#252525"/>
<line x1="85" y1="140.5" x2="102" y2="140.5" stroke="#252525"/>
<line x1="140.5" y1="8" x2="140.5" y2="-9" stroke="#252525"/>
<line x1="140.5" y1="55" x2="140.5" y2="38" stroke="#252525"/>
<line x1="132" y1="46.5" x2="149" y2="46.5" stroke="#252525"/>
<line x1="140.5" y1="102" x2="140.5" y2="85" stroke="#252525"/>
<line x1="132" y1="93.5" x2="149" y2="93.5" stroke="#252525"/>
<line x1="140.5" y1="149" x2="140.5" y2="132" stroke="#252525"/>
<line x1="132" y1="140.5" x2="149" y2="140.5" stroke="#252525"/>
</g>
</svg>
